<svg xmlns="http://www.w3.org/2000/svg" width="864" height="324" fill="none" viewBox="0 0 864 324">
  <path fill="#fff" d="M486 0H162v54h324V0Zm378 0H540v54h324V0ZM216 54h-54v54h54V54Zm270 0h-54v54h54V54Zm108 0h-54v54h54V54Zm270 0h-54v54h54V54Zm-648 54H0v54h216v-54Zm378 0H432v54h162v-54Zm270 0h-54v54h54v-54ZM54 162H0v54h54v-54Zm162 0h-54v54h54v-54Zm270 0h-54v54h54v-54Zm108 0h-54v54h54v-54Zm270 0h-54v54h54v-54ZM54 216H0v54h54v-54Zm162 0h-54v54h54v-54Zm270 0h-54v54h54v-54Zm108 0h-54v54h54v-54Zm270 0h-54v54h54v-54Zm-378 54H162v54h324v-54Zm378 0H540v54h324v-54ZM250 88v61.701h20.63v-20.567h20.63v-20.567h20.63V88H250Zm126.37 0v41.134h-20.63V88h-20.631v61.701H397V88h-20.63Zm-64.48 105.866v-20.567H250V235h61.89v-20.567h-41.26v-20.567h41.26ZM397 235v-20.567h-20.63V235H397Zm-41.26-41.134v-20.567h-20.631V235h20.631v-20.567h20.63v-20.567h-20.63Zm41.26 0v-20.567h-20.63v20.567H397Zm273.26-85.299v20.567h-20.63V88H629v61.701h61.89v-41.134h-20.63ZM755.37 88v41.134h-20.63V88h-20.631v61.701H776V88h-20.63ZM629 173.299V235h20.63v-41.134h20.63v-20.567H629ZM690.89 235v-41.134h-20.63V235h20.63Zm43.85-61.701v41.134h-20.631V235h41.261v-41.134H776v-20.567h-41.26Z"/>
</svg>
